# xmcd
#
# Track frame offsets:
#	150
#	17628
#	30289
#	45203
#	58423
#	80686
#	98801
#	115692
#	127040
#	142647
#	161510
#	174852
#	190411
#	206360
#	221996
#	241108
#	256423
#	273168
#	292740
#	293912
#
# Disc length: 3927 seconds
#
# Revision: 2
# Processed by: cddbd v1.5.2PL0 Copyright (c) Steve Scherf et al.
# Submitted via: audiograbber 1.83.01
#
DISCID=100f5514
DTITLE=Various Artist - CDX 485
DYEAR=2009
DGENRE=Country
TTITLE0=Bucky Covington - Gotta Be Somebody
TTITLE1=Eric Church - Hell On The Heart
TTITLE2=Fast Ryde - Make It Rain
TTITLE3=George Strait - Twang
TTITLE4=Rascal Flatts - Why
TTITLE5=Jason Aldean - The Truth
TTITLE6=Matt Kennon - The Call
TTITLE7=Mark Chesnutt - Going On Later On
TTITLE8=Gwen Sebastian - Hard Rain
TTITLE9=Chris Filer - Joy Ride
TTITLE10=Summer Schappell - Chocolate Is A Vitamin
TTITLE11=Brantley Gilbert - G R I T S
TTITLE12=David St Romain - That's Love
TTITLE13=Aaron Watson - The Road
TTITLE14=Billy Arnold - To Get To You
TTITLE15=Megan Mullins - Tradin' My Halo For Horns
TTITLE16=Tommy Steele - Watching Love Grow
TTITLE17=Nash - I'll Still Want You
TTITLE18=Darius Rucker - CMA Liner
TTITLE19=Darius Rucker - CMA Liner
EXTD=
EXTT0=
EXTT1=
EXTT2=
EXTT3=
EXTT4=
EXTT5=
EXTT6=
EXTT7=
EXTT8=
EXTT9=
EXTT10=
EXTT11=
EXTT12=
EXTT13=
EXTT14=
EXTT15=
EXTT16=
EXTT17=
EXTT18=
EXTT19=
PLAYORDER=
